<?xml version="1.0" encoding="UTF-8"?>
<svg version="1.1" xmlns="http://www.w3.org/2000/svg" width="527" height="484">
<path d="M0 0 C173.91 0 347.82 0 527 0 C527 159.72 527 319.44 527 484 C353.09 484 179.18 484 0 484 C0 324.28 0 164.56 0 0 Z " fill="#FDFDFE" transform="translate(0,0)"/>
<path d="M0 0 C5.78925941 4.03665158 10.04487814 9.60910833 12 16.39453125 C13.36110428 25.14448737 10.96691201 32.14348617 6 39.39453125 C2.28182893 42.93831574 0.15025173 43.67778067 -5 45.39453125 C-5 56.61453125 -5 67.83453125 -5 79.39453125 C-1.47828125 79.348125 2.0434375 79.30171875 5.671875 79.25390625 C9.15395676 79.22254458 12.63602166 79.19835177 16.11816406 79.17480469 C18.50365457 79.15492025 20.88909788 79.12780302 23.27441406 79.09277344 C38.39291603 78.87661319 52.32645966 79.65966462 67 83.39453125 C68.02722168 83.63558594 69.05444336 83.87664062 70.11279297 84.125 C92.99230498 89.70344341 112.27331249 102.21158365 130 117.39453125 C130.83144531 118.10222656 131.66289062 118.80992187 132.51953125 119.5390625 C162.1191702 145.40961308 183.87238456 185.29507876 187.75 224.63671875 C189.31490399 250.26202153 188.01239595 275.12049131 179 299.39453125 C178.74879395 300.07676758 178.49758789 300.75900391 178.23876953 301.46191406 C170.21138196 322.88466668 158.33329695 341.51846781 142.42431641 357.91894531 C141.11327953 359.27717413 139.82686442 360.65905577 138.54296875 362.04296875 C117.78650075 383.86651885 89.13688695 396.49400308 60 402.39453125 C58.80627777 402.66055901 58.80627777 402.66055901 57.58843994 402.93196106 C46.69094709 405.00933989 35.73606587 404.53537672 24.69115257 404.39383888 C18.27412153 404.32072868 11.85682892 404.31159958 5.43945312 404.29101562 C-2.67965428 404.26273994 -10.79743712 404.21525541 -18.91577148 404.09643555 C-25.518786 404.00002816 -32.12014349 403.97420866 -38.72385216 403.98682213 C-41.21337788 403.980093 -43.70296845 403.95059288 -46.19190407 403.89597511 C-64.10734441 403.51874241 -76.16717282 407.01577783 -91.28181171 416.68465424 C-95.81551819 419.53658342 -100.50688861 422.1061074 -105.1875 424.70703125 C-107.06151557 425.77157641 -108.93529298 426.83654124 -110.80859375 427.90234375 C-119.35926346 432.74532573 -127.97839734 437.46536649 -136.59448242 442.19067383 C-137.19824203 442.52241608 -137.80200165 442.85415833 -138.42405701 443.19595337 C-140.06955952 444.10003522 -141.71590447 445.00258327 -143.36230469 445.9050293 C-146.10318502 447.40996533 -146.10318502 447.40996533 -149 449.39453125 C-153.69224031 450.30608112 -158.11216104 450.55702557 -162.27734375 447.9921875 C-164.91942755 445.3501037 -166.7872427 442.87589954 -167.32739258 439.11499023 C-167.11196186 429.90237301 -166.20321995 420.76240082 -165.28173828 411.59912109 C-164.77731631 406.5354565 -164.34372002 401.47171518 -164 396.39453125 C-163.94582916 395.62472931 -163.89165833 394.85492737 -163.83584595 394.0617981 C-163.69168186 391.75466442 -163.59781715 389.45084317 -163.51953125 387.140625 C-163.4733667 386.44154022 -163.42720215 385.74245544 -163.37963867 385.02218628 C-163.32827246 382.21557933 -163.47697777 380.04252334 -165.27523804 377.81459045 C-167.96902377 375.43976324 -170.90337481 373.4804811 -174.0625 371.7734375 C-178.06330655 369.45692353 -181.34082944 366.69235537 -184.6875 363.51953125 C-185.2239917 363.01131836 -185.7604834 362.50310547 -186.31323242 361.97949219 C-187.8895508 360.46480683 -189.44771185 358.93380441 -191 357.39453125 C-191.92425781 356.48316406 -192.84851563 355.57179688 -193.80078125 354.6328125 C-210.0298553 337.79309311 -221.09207015 317.24301173 -229 295.39453125 C-229.22816406 294.76611328 -229.45632812 294.13769531 -229.69140625 293.49023438 C-235.82825059 276.21940103 -237.28036029 259.49374251 -237.375 241.26953125 C-237.38294586 240.46545837 -237.39089172 239.6613855 -237.39907837 238.83294678 C-237.68796086 200.71502336 -222.93029049 164.11004909 -198 135.39453125 C-197.29230469 134.564375 -196.58460938 133.73421875 -195.85546875 132.87890625 C-179.90097413 114.59591782 -158.49786098 98.46460726 -135.44116211 90.26513672 C-133.8116051 89.68397857 -132.189828 89.08053451 -130.57666016 88.45532227 C-123.75011536 85.8445695 -116.97498435 84.11954402 -109.8125 82.70703125 C-108.78447266 82.49498047 -107.75644531 82.28292969 -106.69726562 82.06445312 C-95.79086039 79.85246947 -85.44638185 79.25644334 -74.34375 79.296875 C-72.83060757 79.29874295 -71.31746454 79.30016507 -69.80432129 79.30116272 C-65.84568577 79.30495819 -61.88708766 79.31476271 -57.9284668 79.3258667 C-53.16594211 79.33795615 -48.40340482 79.34249721 -43.64086914 79.34832001 C-36.42722017 79.35797639 -29.21365309 79.37715361 -22 79.39453125 C-22 68.17453125 -22 56.95453125 -22 45.39453125 C-23.65 45.06453125 -25.3 44.73453125 -27 44.39453125 C-32.5597243 40.31129051 -36.83294649 35.27341398 -38 28.39453125 C-38.80408445 20.6734931 -38.9301819 13.93427753 -34.5546875 7.296875 C-26.04343734 -3.11764466 -12.28447901 -6.39063889 0 0 Z " fill="#0F89F7" transform="translate(266,21.60546875)"/>
<path d="M0 0 C1.65420882 -0.00407602 3.30841492 -0.00942362 4.96261597 -0.01593018 C9.41306747 -0.02948728 13.86330795 -0.02435365 18.31376266 -0.01479292 C22.9970222 -0.00713559 27.68026506 -0.01425864 32.36352539 -0.01895142 C40.22447921 -0.02439143 48.08534816 -0.01726364 55.94628906 -0.00292969 C65.00202138 0.01339342 74.05755098 0.00810367 83.11327839 -0.0084089 C90.92349881 -0.022074 98.73365861 -0.02391899 106.54388714 -0.0160929 C111.19320174 -0.01144388 115.84242143 -0.01071444 120.49172974 -0.02070236 C124.86514786 -0.02944332 129.2383076 -0.02322169 133.61169815 -0.00601959 C135.20548196 -0.00209247 136.79928796 -0.00312299 138.39306259 -0.00980759 C162.60288934 -0.10189528 182.97284836 6.76032683 200.77734375 23.57568359 C209.87654957 33.07223465 216.04636279 44.27315248 221.02734375 56.38818359 C221.34445312 57.15388672 221.6615625 57.91958984 221.98828125 58.70849609 C226.23948045 70.11517908 226.39073423 82.68005234 226.33984375 94.70068359 C226.33835327 95.3766156 226.33686279 96.05254761 226.33532715 96.7489624 C226.29372754 107.26962631 225.652333 117.17355151 223.02734375 127.38818359 C222.77210938 128.49033203 222.516875 129.59248047 222.25390625 130.72802734 C218.87311095 143.52232149 211.63641334 155.42276169 203.02734375 165.38818359 C202.38667969 166.18353516 201.74601562 166.97888672 201.0859375 167.79833984 C185.76718632 186.05106915 162.31968786 196.25766503 139.02734375 199.38818359 C134.31307305 199.66310807 129.61101047 199.67202264 124.88964844 199.6628418 C123.50351184 199.6671998 122.11737765 199.67238653 120.73124695 199.67832947 C116.99751158 199.69161625 113.26387808 199.69230959 109.53012371 199.68976617 C106.39697862 199.68868905 103.26385351 199.6935988 100.13071275 199.69837159 C92.72889065 199.70943187 85.32711931 199.70992435 77.92529297 199.70385742 C70.32779154 199.69782511 62.73047565 199.71011773 55.13300586 199.73142749 C48.57632873 199.74913152 42.01971018 199.75503093 35.46301007 199.75178975 C31.56198653 199.74999014 27.66109526 199.7524787 23.76009369 199.76650429 C20.08601209 199.77922182 16.41221619 199.77700949 12.7381382 199.7640934 C10.7742244 199.76065828 8.81030129 199.77180303 6.84642029 199.78366089 C-16.68092755 199.64704219 -40.48129599 191.3656085 -57.97265625 175.38818359 C-58.48038574 174.92814941 -58.98811523 174.46811523 -59.51123047 173.99414062 C-78.07401485 156.97412253 -90.99105024 133.33005245 -92.13378906 107.78637695 C-92.17148676 104.36750265 -92.20376806 100.94909036 -92.21289062 97.5300293 C-92.22252463 95.35539421 -92.2535751 93.18173551 -92.28515625 91.00732422 C-92.47835284 65.35742108 -83.25196582 42.24316574 -65.484375 23.80615234 C-47.15142747 6.12504295 -24.99343732 -0.1048272 0 0 Z " fill="#030C31" transform="translate(180.97265625,167.61181640625)"/>
<path d="M0 0 C3.7032252 0.01146693 7.40643941 0.00719564 11.10967731 0.00525308 C17.3193389 0.00437529 23.52889023 0.01534532 29.73852253 0.03386331 C36.88684337 0.05506039 44.03500344 0.05852972 51.18334937 0.05230135 C58.10637647 0.04658151 65.02934778 0.05228169 71.95236683 0.06347489 C74.87868261 0.06808252 77.80496385 0.06901162 80.73128223 0.06688905 C84.82476238 0.06463309 88.91802297 0.07920357 93.01147175 0.09538674 C94.20554142 0.09290933 95.39961109 0.09043191 96.62986469 0.08787942 C131.8356674 0.30875062 163.14521803 16.70469659 187.51244831 41.37004495 C195.22404876 49.58985976 201.10924292 58.54557021 206.51244831 68.37004495 C206.83874226 68.96075784 207.1650362 69.55147073 207.50121784 70.16008401 C212.25284585 78.88398536 215.87791428 87.79548626 218.51244831 97.37004495 C218.70999714 98.07242288 218.90754597 98.77480081 219.11108112 99.49846292 C228.47755368 134.21266438 222.43274923 172.70714084 204.72338581 203.7098887 C198.80495625 213.66547771 191.4526528 222.02079962 183.51244831 230.37004495 C182.63846394 231.34070901 182.63846394 231.34070901 181.74682331 232.33098245 C170.03370197 244.93146146 153.61201928 253.40152144 137.63744831 259.18254495 C136.88447468 259.46057961 136.13150105 259.73861428 135.35571003 260.02507424 C117.59178848 266.12527101 99.47195927 265.82188964 80.94244909 265.77302146 C77.09568943 265.76531583 73.24894903 265.77250048 69.4021883 265.77717996 C62.94541225 265.78260761 56.4887398 265.77552658 50.03197956 265.76115823 C42.6196004 265.74485139 35.20746917 265.75011804 27.79509604 265.76663744 C21.37750304 265.78035506 14.95998365 265.78212194 8.54238069 265.77432144 C4.73299099 265.76969899 0.92371684 265.76886666 -2.88566494 265.7789309 C-46.20062194 265.87745176 -80.9221251 256.42863565 -112.53833294 225.35441995 C-114.29537065 223.42545253 -115.89533268 221.43781609 -117.48755169 219.37004495 C-117.89038372 218.86167092 -118.29321575 218.3532969 -118.70825481 217.8295176 C-126.00030791 208.5832992 -131.73556298 199.13752784 -136.48755169 188.37004495 C-136.80208294 187.67040627 -137.11661419 186.9707676 -137.44067669 186.24992776 C-149.10204593 159.90431386 -152.73709482 126.08347819 -143.48755169 98.37004495 C-143.27324505 97.7034385 -143.05893841 97.03683206 -142.83813763 96.35002542 C-131.28453193 61.10900541 -107.62412205 32.00903227 -74.67114544 14.7880137 C-64.89604453 9.89748847 -55.03893616 6.18729658 -44.48755169 3.37004495 C-43.43662334 3.08921563 -42.385695 2.80838632 -41.30292034 2.51904702 C-27.69703365 -0.53067299 -13.8681315 -0.05310426 0 0 Z M-100.73755169 69.9911387 C-114.71488825 88.36369241 -120.66609033 108.12382148 -120.72778606 131.11833596 C-120.7373887 133.27100741 -120.76842354 135.42267903 -120.80005169 137.57512307 C-121.01950983 166.04736887 -110.13735019 190.50408277 -90.36255169 210.93254495 C-71.0942855 230.19520664 -45.64568594 238.49092299 -18.85156536 238.5470469 C-17.47088739 238.5533213 -16.09021108 238.55996895 -14.70953655 238.56695962 C-10.1915429 238.58789974 -5.67354934 238.59835786 -1.15552044 238.6083262 C0.40889407 238.61237858 1.97330841 238.61649564 3.53772259 238.62067628 C10.89643807 238.63971195 18.25514368 238.65394206 25.61387902 238.66228825 C34.06165335 238.67203165 42.50916364 238.69828176 50.9568451 238.73878914 C57.51517715 238.76913884 64.07343436 238.78377512 70.63183516 238.78706926 C74.53475879 238.78939982 78.43739993 238.79809454 82.34024715 238.82353044 C116.7360905 239.03596764 144.89949921 233.57746137 170.80932331 209.2098887 C190.61790894 188.73399256 197.73810859 162.22026036 197.76244831 134.43254495 C197.76312305 133.74162759 197.7637978 133.05071023 197.76449299 132.33885598 C197.72555293 107.23598499 191.59584374 84.54069733 174.51244831 65.37004495 C173.51471394 64.23115823 173.51471394 64.23115823 172.49682331 63.0692637 C159.23363073 48.84817388 140.24593375 40.19081981 120.84636784 39.1787951 C116.53909735 39.09668939 112.23582902 39.07636839 107.92797565 39.0795176 C106.27907733 39.07352172 104.6301818 39.06671377 102.98128986 39.05916238 C98.53051329 39.04160051 94.07981378 39.0368111 89.62900591 39.03553081 C86.83926673 39.03410278 84.04954674 39.02982086 81.25981236 39.02453637 C71.50140116 39.00606678 61.74304437 38.99786168 51.98461628 38.99943948 C42.93067977 39.00063923 33.87698227 38.97956163 24.82310617 38.94795215 C17.01545334 38.92167835 9.20787803 38.91107685 1.40018141 38.9123503 C-3.24764868 38.91285678 -7.89526621 38.9073492 -12.54305172 38.8859942 C-16.92140061 38.8664241 -21.29933827 38.86661346 -25.6777029 38.88102746 C-27.27023461 38.8830938 -28.86279335 38.8785472 -30.45527935 38.86630654 C-58.05143783 38.66819563 -82.56634719 48.82294734 -100.73755169 69.9911387 Z " fill="#FAFBFC" transform="translate(209.48755168914795,128.62995505332947)"/>
<path d="M0 0 C5.78925941 4.03665158 10.04487814 9.60910833 12 16.39453125 C13.36110428 25.14448737 10.96691201 32.14348617 6 39.39453125 C2.28182893 42.93831574 0.15025173 43.67778067 -5 45.39453125 C-5 56.61453125 -5 67.83453125 -5 79.39453125 C-1.47828125 79.348125 2.0434375 79.30171875 5.671875 79.25390625 C9.15395676 79.22254458 12.63602166 79.19835177 16.11816406 79.17480469 C18.50365457 79.15492025 20.88909788 79.12780302 23.27441406 79.09277344 C38.39291603 78.87661319 52.32645966 79.65966462 67 83.39453125 C68.02722168 83.63558594 69.05444336 83.87664062 70.11279297 84.125 C92.99230498 89.70344341 112.27331249 102.21158365 130 117.39453125 C130.83144531 118.10222656 131.66289062 118.80992187 132.51953125 119.5390625 C162.1191702 145.40961308 183.87238456 185.29507876 187.75 224.63671875 C189.31490399 250.26202153 188.01239595 275.12049131 179 299.39453125 C178.74879395 300.07676758 178.49758789 300.75900391 178.23876953 301.46191406 C170.21138196 322.88466668 158.33329695 341.51846781 142.42431641 357.91894531 C141.11327953 359.27717413 139.82686442 360.65905577 138.54296875 362.04296875 C120.05836425 381.47785972 94.99951527 393.71961148 69.3125 400.45703125 C68.11125488 400.7813916 68.11125488 400.7813916 66.88574219 401.11230469 C61.96695111 402.30754418 57.93180164 402.43397979 52.93432617 401.58374023 C50.78276068 401.24078781 50.78276068 401.24078781 48 402.39453125 C46.42649308 402.48395573 44.84943672 402.51650446 43.27339172 402.51478577 C42.30164001 402.51616043 41.32988831 402.5175351 40.32868958 402.51895142 C39.26414047 402.51535614 38.19959137 402.51176086 37.1027832 402.50805664 C35.98068451 402.50820267 34.85858582 402.50834869 33.70248413 402.50849915 C29.98523032 402.50780123 26.26802633 402.50001442 22.55078125 402.4921875 C19.9767408 402.49032289 17.40269999 402.48889919 14.82865906 402.48789978 C8.74074472 402.48446882 2.65285101 402.47658343 -3.43505555 402.46655029 C-10.36606694 402.45537546 -17.29707917 402.44987525 -24.22809732 402.44485486 C-38.48540785 402.43440046 -52.74270329 402.41680955 -67 402.39453125 C-68.09587933 397.1946504 -68.39896492 392.06882682 -68.71875 386.76953125 C-68.92319377 383.46938136 -68.92319377 383.46938136 -69.59375 380.58203125 C-70 378.39453125 -70 378.39453125 -69 376.39453125 C-69.66 376.39453125 -70.32 376.39453125 -71 376.39453125 C-71 375.73453125 -71 375.07453125 -71 374.39453125 C-74.3 374.06453125 -77.6 373.73453125 -81 373.39453125 C-81 373.06453125 -81 372.73453125 -81 372.39453125 C-80.32360379 372.39306469 -79.64720758 372.39159813 -78.95031452 372.39008713 C-62.39427978 372.35282781 -45.83847893 372.29356376 -29.2826128 372.21062851 C-21.27588942 372.17103505 -13.26926152 372.13854364 -5.26245117 372.12353516 C1.7267072 372.11041537 8.71565373 372.0831927 15.70469266 372.03991818 C19.39592988 372.01753201 23.08690812 372.00160653 26.77821922 372.0026474 C46.79280458 372.00224991 66.99101151 371.75861904 85.625 363.51953125 C86.4492749 363.17148437 87.2735498 362.8234375 88.12280273 362.46484375 C102.97551116 356.08830364 115.2511508 347.47606199 127 336.39453125 C127.61488281 335.8325 128.22976563 335.27046875 128.86328125 334.69140625 C152.24593766 312.5450742 164.16838814 278.71213791 165.31640625 247.16015625 C166.15593786 209.55057115 154.6666827 174.32819532 128.44799805 146.74902344 C106.03152845 123.94445499 74.65801976 108.58134746 42.390625 108.18920898 C41.67744614 108.17930939 40.96426727 108.16940979 40.22947693 108.15921021 C37.90301685 108.12795469 35.57653645 108.10298216 33.25 108.078125 C31.62475087 108.0575243 29.99950671 108.03652708 28.37426758 108.01515198 C24.11977196 107.96025278 19.86523061 107.91070325 15.61065674 107.86230469 C11.25992821 107.8118532 6.9092652 107.75629122 2.55859375 107.70117188 C-5.96088334 107.59398423 -14.48041682 107.49292661 -23 107.39453125 C-22.67 99.14453125 -22.34 90.89453125 -22 82.39453125 C-30.71844341 82.37197787 -39.43686759 82.3536148 -48.15533352 82.34271908 C-52.20325742 82.33749084 -56.25116041 82.33039426 -60.29907227 82.3190918 C-64.20235971 82.30826082 -68.10562699 82.30225397 -72.0089283 82.29965401 C-73.50133647 82.29780014 -74.99374348 82.29418025 -76.48614311 82.28880119 C-78.56948139 82.28158794 -80.65273531 82.28054042 -82.73608398 82.28100586 C-84.51812477 82.27767494 -84.51812477 82.27767494 -86.33616638 82.27427673 C-88.92120693 82.0909053 -88.92120693 82.0909053 -90 83.39453125 C-91.91667069 83.36090545 -93.83333994 83.32719482 -95.75 83.29296875 C-98.02400401 83.39561476 -99.88396379 83.81878822 -102.0625 84.45703125 C-106.04894693 85.58586672 -108.96600659 85.23494654 -113 84.39453125 C-97.93105615 75.52747258 -74.07490197 79.04178051 -57.17315674 79.1885376 C-52.49302842 79.22520225 -47.81277745 79.238497 -43.13254547 79.25589752 C-36.08811693 79.28460988 -29.04446991 79.34223521 -22 79.39453125 C-22 68.17453125 -22 56.95453125 -22 45.39453125 C-23.65 45.06453125 -25.3 44.73453125 -27 44.39453125 C-32.5597243 40.31129051 -36.83294649 35.27341398 -38 28.39453125 C-38.80408445 20.6734931 -38.9301819 13.93427753 -34.5546875 7.296875 C-26.04343734 -3.11764466 -12.28447901 -6.39063889 0 0 Z " fill="#5245FA" transform="translate(266,21.60546875)"/>
<path d="M0 0 C5.78925941 4.03665158 10.04487814 9.60910833 12 16.39453125 C13.36110428 25.14448737 10.96691201 32.14348617 6 39.39453125 C2.46322112 42.67064301 -0.53730223 44.16318236 -5 46.39453125 C-5 66.52453125 -5 86.65453125 -5 107.39453125 C-10.94 107.39453125 -16.88 107.39453125 -23 107.39453125 C-22.67 99.14453125 -22.34 90.89453125 -22 82.39453125 C-30.71844341 82.37197787 -39.43686759 82.3536148 -48.15533352 82.34271908 C-52.20325742 82.33749084 -56.25116041 82.33039426 -60.29907227 82.3190918 C-64.20235971 82.30826082 -68.10562699 82.30225397 -72.0089283 82.29965401 C-73.50133647 82.29780014 -74.99374348 82.29418025 -76.48614311 82.28880119 C-78.56948139 82.28158794 -80.65273531 82.28054042 -82.73608398 82.28100586 C-84.51812477 82.27767494 -84.51812477 82.27767494 -86.33616638 82.27427673 C-88.92120693 82.0909053 -88.92120693 82.0909053 -90 83.39453125 C-91.91667069 83.36090545 -93.83333994 83.32719482 -95.75 83.29296875 C-98.02400401 83.39561476 -99.88396379 83.81878822 -102.0625 84.45703125 C-106.04894693 85.58586672 -108.96600659 85.23494654 -113 84.39453125 C-97.93105615 75.52747258 -74.07490197 79.04178051 -57.17315674 79.1885376 C-52.49302842 79.22520225 -47.81277745 79.238497 -43.13254547 79.25589752 C-36.08811693 79.28460988 -29.04446991 79.34223521 -22 79.39453125 C-22 68.17453125 -22 56.95453125 -22 45.39453125 C-23.65 45.06453125 -25.3 44.73453125 -27 44.39453125 C-32.5597243 40.31129051 -36.83294649 35.27341398 -38 28.39453125 C-38.80408445 20.6734931 -38.9301819 13.93427753 -34.5546875 7.296875 C-26.04343734 -3.11764466 -12.28447901 -6.39063889 0 0 Z " fill="#3061FB" transform="translate(266,21.60546875)"/>
<path d="M0 0 C9.01478178 5.15277905 14.91441083 12.1518035 18.375 22 C19.32989976 26.89094998 19.12403358 29.85304233 16.375 34.0625 C12.19395862 36.76275589 10.29383328 36.78076719 5.375 36 C2.13099401 33.28204904 1.13145794 30.42956487 -0.0625 26.5 C-1.65576987 21.32402598 -4.16319103 18.43605523 -8.875 15.6875 C-14.2549791 14.34250522 -19.40247506 14.02627745 -24.4375 16.625 C-29.0109759 20.03268793 -31.10964163 23.1318259 -32.625 28.625 C-33.73973958 32.38724609 -34.32209188 33.88275121 -37.625 36 C-40.75334811 36.61069042 -43.50144602 36.65336725 -46.625 36 C-49.81569498 33.43187965 -50.49408042 31.83461233 -51.125 27.8125 C-49.80063844 17.71424312 -45.02507026 10.85236769 -37.625 4 C-26.67004004 -4.35315697 -12.47890166 -6.27867121 0 0 Z " fill="#02D3F8" transform="translate(192.625,240)"/>
<path d="M0 0 C9.18745714 4.28981777 16.17655096 10.75131928 20.5078125 19.93359375 C21.2578125 22.37109375 21.2578125 22.37109375 21.5078125 24.93359375 C21.57097656 25.56394531 21.63414062 26.19429688 21.69921875 26.84375 C21.91318677 30.53642385 21.71576231 32.5426481 19.9453125 35.87109375 C16.71833265 38.60161516 14.71615981 39.0074244 10.5078125 38.93359375 C7.7578125 37.62109375 7.7578125 37.62109375 5.5078125 34.93359375 C4.64226755 32.45151632 3.98027966 29.95312897 3.31640625 27.41015625 C1.93542354 23.18047972 -0.48170605 20.16388837 -4.32421875 17.8125 C-8.64480292 16.06091182 -12.94441846 16.14103649 -17.4921875 16.93359375 C-23.14309925 19.76373529 -25.69702825 23.75179294 -27.6796875 29.62109375 C-27.97617187 30.55824219 -28.27265625 31.49539063 -28.578125 32.4609375 C-29.8463071 35.89153267 -31.17443846 37.39045466 -34.4921875 38.93359375 C-38.0546875 39.05859375 -38.0546875 39.05859375 -41.4921875 37.93359375 C-44.35102999 34.8548403 -45.3659353 32.77001456 -45.9921875 28.62109375 C-44.68701145 18.99542035 -39.13093454 10.57071909 -31.5546875 4.62109375 C-22.33494266 -2.21052185 -10.83662706 -3.30917135 0 0 Z " fill="#2AACF9" transform="translate(336.4921875,238.06640625)"/>
<path d="M0 0 C1.716772 1.12314792 3.40156146 2.29581956 5.0625 3.5 C11.56269659 7.91404534 17.3425143 8.17949238 25 7 C28.93048501 5.73641286 31.90576659 3.95745423 35 1.25 C38.38148209 -0.86342631 41.06718461 -0.43697949 45 0 C47 1.5 47 1.5 48 4 C48.51656942 8.57532918 48.48326469 10.94942458 46.5625 15.125 C41.41189099 20.90373207 34.66719822 25.4341643 26.80908203 26.21875 C13.94107644 26.84227541 4.04536972 26.53438995 -6.0625 17.875 C-9.68898348 14.49708042 -10.90311114 13.2014218 -11.3125 8.125 C-11.25797069 5.12588791 -11.07836085 4.12537736 -9.4375 1.5 C-5.83527392 -0.71675451 -4.21217575 -0.73545926 0 0 Z " fill="#24A5F8" transform="translate(233,298)"/>
<path d="M0 0 C2.15525845 2.15525845 2.44014689 3.06319404 3.19921875 5.921875 C5.79691403 15.64635961 5.79691403 15.64635961 12.62109375 22.453125 C16.31340291 24.04416057 20.10393003 25.03246156 24 26 C25.67801728 26.63755802 27.35041126 27.2921305 29 28 C26 30 26 30 22.26953125 31.05859375 C13.81218168 33.47624586 13.81218168 33.47624586 7.42285156 39.1875 C4.59908312 44.53032869 2.65084626 50.19731443 1 56 C-1.97850158 54.51074921 -2.11356087 52.10950987 -3.15551758 49.11987305 C-6.04563788 40.39688979 -6.04563788 40.39688979 -12.8125 34.6875 C-14.52533966 34.0770871 -16.25614715 33.51517071 -18 33 C-19.87978334 32.24090605 -21.75501021 31.47040945 -23.625 30.6875 C-25.0816067 30.12054385 -26.53929462 29.5563112 -28 29 C-27 27 -27 27 -25.3293457 26.33666992 C-24.61866943 26.13662354 -23.90799316 25.93657715 -23.17578125 25.73046875 C-13.80166161 23.02401258 -13.80166161 23.02401258 -6.578125 16.89453125 C-5.11972547 13.62816734 -3.99503455 10.43308458 -3 7 C-2.39795676 5.55273527 -1.778003 4.11249766 -1.125 2.6875 C-0.75375 1.800625 -0.3825 0.91375 0 0 Z " fill="#573DFA" transform="translate(464,130)"/>
<path d="M0 0 C0.66 0.33 1.32 0.66 2 1 C2.58984158 3.04337975 3.17742793 5.08744651 3.75170898 7.13525391 C5.96137164 14.75337835 5.96137164 14.75337835 11.08935547 20.53515625 C16.15508614 23.12581152 21.4887802 24.65864492 27 26 C27 26.66 27 27.32 27 28 C26.28714844 28.25394531 25.57429688 28.50789063 24.83984375 28.76953125 C23.88207031 29.11371094 22.92429687 29.45789063 21.9375 29.8125 C20.99777344 30.14894531 20.05804688 30.48539063 19.08984375 30.83203125 C18.07019531 31.21746094 17.05054688 31.60289063 16 32 C14.8140625 32.3403125 13.628125 32.680625 12.40625 33.03125 C7.48967897 35.87293784 6.46108778 39.50712176 4.5625 44.6875 C4.21251953 45.58017578 3.86253906 46.47285156 3.50195312 47.39257812 C2.64514665 49.58741116 1.81249785 51.7884655 1 54 C-1.72772048 51.27227952 -2.7460131 48.02994255 -4.125 44.5 C-4.40214844 43.81035156 -4.67929687 43.12070313 -4.96484375 42.41015625 C-7 37.26712592 -7 37.26712592 -7 35 C-7.61746094 34.82984375 -8.23492187 34.6596875 -8.87109375 34.484375 C-14.8338204 32.77814576 -20.40114631 30.66418883 -26 28 C-26 27.34 -26 26.68 -26 26 C-23.58459694 25.01761592 -21.16778178 24.03899782 -18.75 23.0625 C-17.72712891 22.64581055 -17.72712891 22.64581055 -16.68359375 22.22070312 C-13.48076362 20.93024244 -10.36162466 19.78199956 -7 19 C-6.8865625 18.30261719 -6.773125 17.60523437 -6.65625 16.88671875 C-5.92453549 13.66804598 -4.79650532 10.84647321 -3.5 7.8125 C-3.0565625 6.76707031 -2.613125 5.72164063 -2.15625 4.64453125 C-1.47246222 3.08059771 -0.76334184 1.52668369 0 0 Z " fill="#434FFA" transform="translate(413,62)"/>
<path d="M0 0 C1.85614168 0.00561595 3.7122879 0.00987655 5.56843567 0.01286316 C10.38354422 0.02415492 15.19836827 0.05348103 20.0133667 0.0869751 C24.95483556 0.11802001 29.89635174 0.13144097 34.83789062 0.14648438 C44.48189379 0.17837077 54.1256886 0.22936966 63.76953125 0.29296875 C63.93630753 2.0262436 64.10041554 3.7597753 64.26342773 5.4934082 C64.35510727 6.45873978 64.4467868 7.42407135 64.54124451 8.4186554 C64.86111084 12.4460293 64.87870811 16.44353984 64.83203125 20.48046875 C64.81140625 23.05859375 64.79078125 25.63671875 64.76953125 28.29296875 C58.82953125 28.29296875 52.88953125 28.29296875 46.76953125 28.29296875 C47.09953125 20.04296875 47.42953125 11.79296875 47.76953125 3.29296875 C39.05108784 3.27041537 30.33266366 3.2520523 21.61419773 3.24115658 C17.56627383 3.23592834 13.51837084 3.22883176 9.47045898 3.2175293 C5.56717154 3.20669832 1.66390426 3.20069147 -2.23939705 3.19809151 C-3.73180522 3.19623764 -5.22421223 3.19261775 -6.71661186 3.18723869 C-8.79995014 3.18002544 -10.88320406 3.17897792 -12.96655273 3.17944336 C-14.74859352 3.17611244 -14.74859352 3.17611244 -16.56663513 3.17271423 C-19.15167568 2.9893428 -19.15167568 2.9893428 -20.23046875 4.29296875 C-22.14713944 4.25934295 -24.06380869 4.22563232 -25.98046875 4.19140625 C-28.25447276 4.29405226 -30.11443254 4.71722572 -32.29296875 5.35546875 C-36.27941568 6.48430422 -39.19647534 6.13338404 -43.23046875 5.29296875 C-31.65217942 -1.79417289 -13.08212584 -0.11889344 0 0 Z " fill="#3C45E4" transform="translate(196.23046875,100.70703125)"/>
<path d="M0 0 C3.97628935 0.0311507 7.95263892 0.04448767 11.92901611 0.05950928 C19.6772235 0.09131203 27.42513911 0.14224795 35.17315674 0.20599365 C35.17315674 1.19599365 35.17315674 2.18599365 35.17315674 3.20599365 C34.33599625 3.20377304 33.49883575 3.20155243 32.63630676 3.19926453 C24.7634826 3.17926333 16.89066691 3.1640204 9.01782322 3.15418148 C4.96989932 3.14895324 0.92199633 3.14185666 -3.12591553 3.1305542 C-7.02920298 3.11972322 -10.93247025 3.11371637 -14.83577156 3.11111641 C-16.32817973 3.10926254 -17.82058675 3.10564265 -19.31298637 3.1002636 C-21.39632466 3.09305035 -23.47957858 3.09200283 -25.56292725 3.09246826 C-27.34496803 3.08913734 -27.34496803 3.08913734 -29.16300964 3.08573914 C-31.74805019 2.9023677 -31.74805019 2.9023677 -32.82684326 4.20599365 C-34.74351395 4.17236785 -36.6601832 4.13865722 -38.57684326 4.10443115 C-40.85084728 4.20707717 -42.71080705 4.63025062 -44.88934326 5.26849365 C-48.87579019 6.39732912 -51.79284985 6.04640895 -55.82684326 5.20599365 C-40.75789941 -3.66106501 -16.90174524 -0.14675709 0 0 Z " fill="#3E6BFA" transform="translate(208.82684326171875,100.79400634765625)"/>
<path d="M0 0 C0.66 0 1.32 0 2 0 C2.10054688 0.68707031 2.20109375 1.37414062 2.3046875 2.08203125 C2.91906043 5.02344684 3.54975639 7.35894053 5 10 C8.21655062 11.76625405 11.38629704 12.47116542 15 13 C12 15 12 15 9.125 16.0625 C4.74150089 18.78026945 3.16541231 22.42963862 1 27 C-1 24 -1 24 -2.125 21.0625 C-4.63802244 16.95789668 -7.64181209 15.75983835 -12 14 C-9.97455831 11.7997434 -8.87446333 10.9503084 -6 9.8125 C-1.72736203 7.23111456 -1.3892933 4.70816062 0 0 Z " fill="#504CF9" transform="translate(480,211)"/>
<path d="M0 0 C-2.53562284 2.53562284 -4.12205742 2.23544304 -7.57958984 2.24884033 C-8.74699707 2.2380545 -8.74699707 2.2380545 -9.93798828 2.22705078 C-11.16737625 2.22748886 -11.16737625 2.22748886 -12.42160034 2.22793579 C-15.13794443 2.22653944 -17.85401618 2.21096401 -20.5703125 2.1953125 C-22.45075328 2.19158345 -24.33119599 2.18873597 -26.2116394 2.18673706 C-31.16665998 2.17909207 -36.12156374 2.15943619 -41.07653809 2.1373291 C-46.1304364 2.11688928 -51.18435354 2.10773934 -56.23828125 2.09765625 C-66.15890555 2.07619109 -76.07944307 2.04204474 -86 2 C-82.30201959 -0.35425309 -79.11614233 -0.2360016 -74.80053711 -0.21118164 C-73.72424294 -0.20921028 -73.72424294 -0.20921028 -72.62620544 -0.2071991 C-70.25978292 -0.20071982 -67.89368595 -0.18029411 -65.52734375 -0.16015625 C-63.88115286 -0.15388423 -62.23495773 -0.14864467 -60.58876038 -0.14439392 C-56.25797593 -0.13109854 -51.92733283 -0.10666789 -47.59661865 -0.07904053 C-40.66123811 -0.03590035 -33.7258191 -0.00621295 -26.79034615 0.0170002 C-24.36676438 0.02723012 -21.94329726 0.04427882 -19.51976013 0.06199646 C-18.03653058 0.06882384 -16.55330001 0.07543259 -15.07006836 0.08178711 C-13.12625526 0.09416664 -13.12625526 0.09416664 -11.14317322 0.10679626 C-0.98051098 -0.23850267 -0.98051098 -0.23850267 0 0 Z " fill="#145BFA" transform="translate(322,423)"/>
<path d="M0 0 C7.16749132 -0.07669331 14.33487501 -0.12886725 21.50268555 -0.16479492 C23.935994 -0.17978847 26.36927587 -0.2001901 28.80249023 -0.22631836 C32.32021692 -0.26311919 35.83758323 -0.2798213 39.35546875 -0.29296875 C40.96097847 -0.31619453 40.96097847 -0.31619453 42.59892273 -0.33988953 C50.40628485 -0.34159042 57.47028382 0.97274478 65 3 C62 5 62 5 60.125 4.76000977 C59.42375 4.55174561 58.7225 4.34348145 58 4.12890625 C52.61513745 2.76850844 47.52473383 2.81000614 42 2.9375 C40.12507367 2.97175102 38.25006697 3.00193271 36.375 3.02734375 C35.55773437 3.04531006 34.74046875 3.06327637 33.8984375 3.08178711 C32 3 32 3 31 2 C28.71011219 1.84111908 26.41556559 1.74861927 24.12109375 1.68359375 C23.4344313 1.66281265 22.74776886 1.64203156 22.04029846 1.62062073 C19.83947065 1.55505857 17.63852025 1.49620985 15.4375 1.4375 C13.94855486 1.39432108 12.45962227 1.350707 10.97070312 1.30664062 C7.31393447 1.1993707 3.65702682 1.09812228 0 1 C0 0.67 0 0.34 0 0 Z " fill="#7D63F8" transform="translate(261,101)"/>
<path d="M0 0 C3.79728583 5.69592875 5.33250465 12.18365467 5 19 C5.33 19.99 5.66 20.98 6 22 C6.88269939 27.78658492 7.10319823 33.47028498 7.125 39.3125 C7.12959229 40.00625732 7.13418457 40.70001465 7.13891602 41.41479492 C7.12874818 44.7648923 6.9993909 47.79454623 6 51 C5.65939189 52.66519519 5.32441604 54.33157466 5 56 C4.67 56 4.34 56 4 56 C3.98541748 54.98800537 3.97083496 53.97601074 3.95581055 52.93334961 C3.89691485 49.10294891 3.81970797 45.27308158 3.73754883 41.44311523 C3.70472116 39.79964997 3.67656504 38.15608334 3.65356445 36.51245117 C3.51351297 26.75950398 2.85840838 17.61721179 0.63208008 8.10375977 C0.0594072 5.29171254 -0.12470243 2.85612027 0 0 Z " fill="#6B33F3" transform="translate(428,226)"/>
<path d="M0 0 C0.99 0.33 1.98 0.66 3 1 C-0.1769329 4.30930511 -3.59698894 7.26233231 -7.09765625 10.21875 C-10.39396593 13.30523299 -12.24530659 15.84570494 -13.0625 20.3125 C-13.84606004 24.28956103 -14.84300472 28.11580156 -16 32 C-18 30 -18 30 -18.375 26.9375 C-17.52403624 18.00238052 -12.52465276 10.1039545 -5.94140625 4.1328125 C-2.08732228 1.06368875 -2.08732228 1.06368875 0 0 Z " fill="#19A5E5" transform="translate(309,240)"/>
<path d="M0 0 C2.9375 2 2.9375 2 5 4 C2.03 3.505 2.03 3.505 -1 3 C-1 2.34 -1 1.68 -1 1 C-2.32 1 -3.64 1 -5 1 C-6.73662334 4.22515763 -7.8905928 7.51329166 -9 11 C-8.34 11 -7.68 11 -7 11 C-7 12.32 -7 13.64 -7 15 C-6.1028125 15.433125 -6.1028125 15.433125 -5.1875 15.875 C-3 17 -3 17 0 19 C0 19.66 0 20.32 0 21 C1.32 21 2.64 21 4 21 C4.33 21.99 4.66 22.98 5 24 C-1.39276947 22.68866267 -5.54068609 18.50625406 -10 14 C-11.60290203 10.79419594 -11.48117071 7.47817686 -11 4 C-8.1553332 -0.55146687 -5.11689336 -0.71816047 0 0 Z " fill="#11A9F0" transform="translate(233,298)"/>
<path d="M0 0 C0.66 0.99 1.32 1.98 2 3 C4.83727325 3.26667539 7.45383045 3.34791234 10.2890625 3.29296875 C11.51669815 3.28660149 11.51669815 3.28660149 12.76913452 3.28010559 C15.38808836 3.26328679 18.00627802 3.22562974 20.625 3.1875 C22.3984264 3.17245726 24.17186484 3.15876814 25.9453125 3.14648438 C30.2971703 3.11337292 34.64845551 3.06156952 39 3 C39 3.66 39 4.32 39 5 C37.26713745 5.02187378 37.26713745 5.02187378 35.49926758 5.04418945 C31.20322088 5.10226822 26.90769306 5.1795005 22.61206055 5.26245117 C20.7547245 5.29565549 18.89728863 5.32370141 17.03979492 5.34643555 C14.36594202 5.38006442 11.69300007 5.43238374 9.01953125 5.48828125 C8.19226028 5.49467117 7.36498932 5.5010611 6.51264954 5.50764465 C1.78434564 5.62756905 -1.03819334 6.17845038 -5 9 C-5.66 9 -6.32 9 -7 9 C-6.67 8.01 -6.34 7.02 -6 6 C-5.175 5.690625 -4.35 5.38125 -3.5 5.0625 C-2.675 4.711875 -1.85 4.36125 -1 4 C-0.11306697 1.95894361 -0.11306697 1.95894361 0 0 Z " fill="#0970FB" transform="translate(197,420)"/>
<path d="M0 0 C-2 2 -2 2 -5.25634766 2.22705078 C-6.64229295 2.22673382 -8.02826301 2.21541759 -9.4140625 2.1953125 C-10.14370209 2.1924826 -10.87334167 2.18965271 -11.62509155 2.18673706 C-13.95856028 2.17553002 -16.29164703 2.1504251 -18.625 2.125 C-20.20572363 2.11497085 -21.78645327 2.10584489 -23.3671875 2.09765625 C-27.24493914 2.07558905 -31.12240478 2.04105615 -35 2 C-31.76501385 0.07965615 -29.42175609 -0.22831257 -25.68359375 -0.16015625 C-24.16668945 -0.1437207 -24.16668945 -0.1437207 -22.61914062 -0.12695312 C-21.56919922 -0.10568359 -20.51925781 -0.08441406 -19.4375 -0.0625 C-17.35293369 -0.02807597 -15.26829103 0.00206663 -13.18359375 0.02734375 C-11.79998657 0.05429321 -11.79998657 0.05429321 -10.38842773 0.08178711 C-0.98723642 -0.24013859 -0.98723642 -0.24013859 0 0 Z " fill="#254BF8" transform="translate(322,423)"/>
<path d="M0 0 C-0.33 0.99 -0.66 1.98 -1 3 C-2.7325 2.938125 -2.7325 2.938125 -4.5 2.875 C-7.56479026 2.85878418 -10.12378968 3.20561578 -13.0625 4.0625 C-17.04894693 5.19133547 -19.96600659 4.84041529 -24 4 C-16.71521877 -0.0414404 -8.14900705 -0.26718056 0 0 Z " fill="#367FFB" transform="translate(177,102)"/>
<path d="M0 0 C2.48731205 3.73096808 2.26081721 6.62721959 2.1875 10.9375 C2.18685547 11.65357422 2.18621094 12.36964844 2.18554688 13.10742188 C2.15684973 16.54789051 2.03293355 19.70848785 1 23 C0.65939189 24.66519519 0.32441604 26.33157466 0 28 C-0.33 28 -0.66 28 -1 28 C-0.67 18.76 -0.34 9.52 0 0 Z " fill="#5D23F6" transform="translate(433,254)"/>
<path d="M0 0 C3.40141434 0.89674059 6.79480538 1.82086178 10.1875 2.75 C11.14720703 3.00265625 12.10691406 3.2553125 13.09570312 3.515625 C18.21555581 4.93288526 22.11367961 6.17193281 26 10 C21.46796198 10.39988571 18.98251345 9.06784352 15 7 C12.02847685 5.90972892 9.01662119 4.95714541 6 4 C4 3.33333333 2 2.66666667 0 2 C0 1.34 0 0.68 0 0 Z " fill="#8745FB" transform="translate(332,105)"/>
<path d="M0 0 C0.78052734 -0.01224609 1.56105469 -0.02449219 2.36523438 -0.03710938 C4.39070035 -0.04235217 6.41572552 0.06515672 8.4375 0.1875 C9.0975 0.8475 9.7575 1.5075 10.4375 2.1875 C0.0425 2.6825 0.0425 2.6825 -10.5625 3.1875 C-10.8925 2.5275 -11.2225 1.8675 -11.5625 1.1875 C-7.6986104 -0.1004632 -4.02572278 0.00334085 0 0 Z " fill="#1CA3E3" transform="translate(324.5625,236.8125)"/>
<path d="M0 0 C0.66 0.33 1.32 0.66 2 1 C2.49230769 8.26153846 2.49230769 8.26153846 0 12 C-0.66 12.66 -1.32 13.32 -2 14 C-2.99 13.67 -3.98 13.34 -5 13 C-4.67 12.34 -4.34 11.68 -4 11 C-3.34 11 -2.68 11 -2 11 C-1.34 7.37 -0.68 3.74 0 0 Z " fill="#38A7F1" transform="translate(356,262)"/>
<path d="M0 0 C0.66 0.66 1.32 1.32 2 2 C-0.62214328 3.50519387 -3.24744208 5.00431319 -5.875 6.5 C-6.62136719 6.92925781 -7.36773437 7.35851562 -8.13671875 7.80078125 C-8.85214844 8.20683594 -9.56757813 8.61289062 -10.3046875 9.03125 C-10.96452637 9.40830078 -11.62436523 9.78535156 -12.30419922 10.17382812 C-14 11 -14 11 -16 11 C-16 10.34 -16 9.68 -16 9 C-15.01 9 -14.02 9 -13 9 C-12.67 8.34 -12.34 7.68 -12 7 C-11.01 7 -10.02 7 -9 7 C-9 6.34 -9 5.68 -9 5 C-6.03 3.35 -3.06 1.7 0 0 Z " fill="#206AE5" transform="translate(188,428)"/>
<path d="M0 0 C1.65 0.33 3.3 0.66 5 1 C5 1.66 5 2.32 5 3 C4.24074219 3.26554687 3.48148437 3.53109375 2.69921875 3.8046875 C1.20841797 4.33449219 1.20841797 4.33449219 -0.3125 4.875 C-1.79169922 5.39707031 -1.79169922 5.39707031 -3.30078125 5.9296875 C-6.15594377 6.95305924 -6.15594377 6.95305924 -9 9 C-9.99 9 -10.98 9 -12 9 C-12 8.34 -12 7.68 -12 7 C-10.68 7 -9.36 7 -8 7 C-8 6.34 -8 5.68 -8 5 C-5.09399739 3.74335022 -3.20395416 3 0 3 C0 2.01 0 1.02 0 0 Z " fill="#615AFB" transform="translate(435,87)"/>
<path d="M0 0 C0.33 0.66 0.66 1.32 1 2 C-0.07518118 4.44332726 -1.19808566 6.76754523 -2.4375 9.125 C-2.77587891 9.78371094 -3.11425781 10.44242187 -3.46289062 11.12109375 C-4.30149926 12.75106547 -5.14984811 14.37601909 -6 16 C-6.66 15.67 -7.32 15.34 -8 15 C-6.5320383 9.66195747 -3.98519676 3.98519676 0 0 Z " fill="#5F33F9" transform="translate(424,314)"/>
<path d="M0 0 C1.89646998 0.11493757 3.79218332 0.24239642 5.6875 0.375 C6.74324219 0.44460937 7.79898437 0.51421875 8.88671875 0.5859375 C11.90677269 0.98760089 14.24078054 1.74069019 17 3 C17 3.66 17 4.32 17 5 C5.47835991 3.07289294 5.47835991 3.07289294 0 1 C0 0.67 0 0.34 0 0 Z " fill="#8049F8" transform="translate(322,129)"/>
<path d="M0 0 C2 1 2 1 2.9375 3.25 C3 6 3 6 0.6875 8.8125 C-2 11 -2 11 -4 11 C-3.52269162 9.5410574 -3.04308958 8.08286504 -2.5625 6.625 C-2.29566406 5.81289062 -2.02882813 5.00078125 -1.75390625 4.1640625 C-1 2 -1 2 0 0 Z " fill="#5469F8" transform="translate(413,62)"/>
<path d="M0 0 C0.99 0.66 1.98 1.32 3 2 C-4.92 5.96 -4.92 5.96 -13 10 C-13 9.01 -13 8.02 -13 7 C-12.030625 6.87625 -11.06125 6.7525 -10.0625 6.625 C-9.051875 6.41875 -8.04125 6.2125 -7 6 C-6.67 5.34 -6.34 4.68 -6 4 C-3.9375 3.375 -3.9375 3.375 -2 3 C-2 2.34 -2 1.68 -2 1 C-1.34 0.67 -0.68 0.34 0 0 Z " fill="#1B74EA" transform="translate(159,444)"/>
<path d="M0 0 C0.99 0.33 1.98 0.66 3 1 C2.57847656 1.53109375 2.15695313 2.0621875 1.72265625 2.609375 C1.17480469 3.31578125 0.62695312 4.0221875 0.0625 4.75 C-0.48277344 5.44609375 -1.02804688 6.1421875 -1.58984375 6.859375 C-2.97425654 8.96092128 -3.56286987 10.54321799 -4 13 C-4.66 12.67 -5.32 12.34 -6 12 C-4.68139111 7.38486888 -2.78644563 3.90102388 0 0 Z " fill="#2C76FC" transform="translate(234,26)"/>
<path d="M0 0 C0.92399724 2.50718765 1.16892656 3.60065169 0.109375 6.10546875 C-0.33921875 6.79253906 -0.7878125 7.47960937 -1.25 8.1875 C-1.90742188 9.22970703 -1.90742188 9.22970703 -2.578125 10.29296875 C-4 12 -4 12 -7 13 C-5.35821735 8.22390502 -2.73453298 4.20617096 0 0 Z " fill="#5031F8" transform="translate(412,334)"/>
<path d="M0 0 C-1.0625 1.5625 -1.0625 1.5625 -3 3 C-6.6875 2.6875 -6.6875 2.6875 -10 2 C-10 1.34 -10 0.68 -10 0 C-3.375 -1.125 -3.375 -1.125 0 0 Z " fill="#189BDB" transform="translate(305,274)"/>
<path d="M0 0 C0.66 0.66 1.32 1.32 2 2 C1.75 5.0625 1.75 5.0625 1 8 C0.01 8.495 0.01 8.495 -1 9 C-1.65772428 12.02934491 -1.65772428 12.02934491 -2 15 C-2.33 15 -2.66 15 -3 15 C-3.36263859 9.1977825 -2.25684543 5.36000789 0 0 Z " fill="#02A0C0" transform="translate(145,256)"/>
<path d="M0 0 C0.66 0.33 1.32 0.66 2 1 C0.68 1.33 -0.64 1.66 -2 2 C-2 2.99 -2 3.98 -2 5 C-0.35 5.33 1.3 5.66 3 6 C3 6.99 3 7.98 3 9 C0.03 7.35 -2.94 5.7 -6 4 C-3 1 -3 1 0 0 Z " fill="#5D5FF6" transform="translate(474,221)"/>
<path d="M0 0 C0.33 0 0.66 0 1 0 C1.22397733 2.04000973 1.42848537 4.08216189 1.625 6.125 C1.74101563 7.26195312 1.85703125 8.39890625 1.9765625 9.5703125 C2.00112837 13.16511799 1.32167811 15.680671 0 19 C-0.33 19 -0.66 19 -1 19 C-0.67 12.73 -0.34 6.46 0 0 Z " fill="#479FF8" transform="translate(102,418)"/>
<path d="M0 0 C0.33 1.32 0.66 2.64 1 4 C-0.9375 6.25 -0.9375 6.25 -3 8 C-3.99 7.67 -4.98 7.34 -6 7 C-4.02 4.69 -2.04 2.38 0 0 Z " fill="#13A8E7" transform="translate(302,245)"/>
<path d="M0 0 C0.66 0.33 1.32 0.66 2 1 C2.29296875 7.0546875 2.29296875 7.0546875 2 9 C1.01 9.66 0.02 10.32 -1 11 C-0.67 7.37 -0.34 3.74 0 0 Z " fill="#1EB6FA" transform="translate(31,231)"/>
<path d="M0 0 C4.61513112 1.31860889 8.09897612 3.21355437 12 6 C11.34 6.66 10.68 7.32 10 8 C7.5 6.625 7.5 6.625 5 5 C5 4.34 5 3.68 5 3 C2.525 2.01 2.525 2.01 0 1 C0 0.67 0 0.34 0 0 Z " fill="#9045FC" transform="translate(364,118)"/>
<path d="M0 0 C0.66 1.32 1.32 2.64 2 4 C-3.14285714 8.42857143 -3.14285714 8.42857143 -7 9 C-6.67 8.01 -6.34 7.02 -6 6 C-5.175 5.690625 -4.35 5.38125 -3.5 5.0625 C-2.675 4.711875 -1.85 4.36125 -1 4 C-0.11306697 1.95894361 -0.11306697 1.95894361 0 0 Z " fill="#206BE3" transform="translate(197,420)"/>
<path d="M0 0 C0.6875 1.8125 0.6875 1.8125 1 4 C-0.1875 5.625 -0.1875 5.625 -2 7 C-4.26171875 7.29296875 -4.26171875 7.29296875 -6.6875 7.1875 C-7.49574219 7.16042969 -8.30398437 7.13335937 -9.13671875 7.10546875 C-9.75160156 7.07066406 -10.36648437 7.03585937 -11 7 C-11 6.67 -11 6.34 -11 6 C-6.545 5.505 -6.545 5.505 -2 5 C-1.34 3.35 -0.68 1.7 0 0 Z " fill="#01385D" transform="translate(159,270)"/>
<path d="M0 0 C0.33 0 0.66 0 1 0 C1.33 3.96 1.66 7.92 2 12 C1.01 12.33 0.02 12.66 -1 13 C-0.67 8.71 -0.34 4.42 0 0 Z " fill="#7546F4" transform="translate(431,276)"/>
<path d="M0 0 C3.82946843 1.45255699 5.12050295 3.42895561 7 7 C6.34 7.66 5.68 8.32 5 9 C1.125 3.375 1.125 3.375 0 0 Z " fill="#2FACED" transform="translate(335,256)"/>
<path d="M0 0 C0 1.32 0 2.64 0 4 C-2.31 3.34 -4.62 2.68 -7 2 C-5.26578631 -1.46842738 -3.40984787 -1.13661596 0 0 Z " fill="#6261F7" transform="translate(443,157)"/>
<path d="M0 0 C1.32 0.33 2.64 0.66 4 1 C4 1.66 4 2.32 4 3 C5.32 3 6.64 3 8 3 C8.33 3.99 8.66 4.98 9 6 C5.59687262 4.94124926 2.98646769 3.99097846 0 2 C0 1.34 0 0.68 0 0 Z " fill="#1198DA" transform="translate(229,316)"/>
<path d="M0 0 C0.66 0 1.32 0 2 0 C2 0.99 2 1.98 2 3 C1.01 3.33 0.02 3.66 -1 4 C-1.33 4.66 -1.66 5.32 -2 6 C-3.65 6 -5.3 6 -7 6 C-6.21625 5.38125 -5.4325 4.7625 -4.625 4.125 C-2.03162353 2.10141339 -2.03162353 2.10141339 0 0 Z " fill="#219CE3" transform="translate(268,299)"/>
<path d="M0 0 C-0.99 1.485 -0.99 1.485 -2 3 C-3.65 2.67 -5.3 2.34 -7 2 C-7 1.34 -7 0.68 -7 0 C-4.3333581 -1.33332095 -2.83319697 -0.67102033 0 0 Z " fill="#506EF9" transform="translate(394,88)"/>
<path d="M0 0 C-1.5 1.5625 -1.5 1.5625 -4 3 C-6.77437543 2.96823234 -9.25286467 2.50364148 -12 2 C-8.09971775 -0.60018816 -4.52565431 -0.15085514 0 0 Z " fill="#2379FC" transform="translate(165,104)"/>
<path d="M0 0 C0.66 0.66 1.32 1.32 2 2 C-4.75 6 -4.75 6 -7 6 C-6.67 5.01 -6.34 4.02 -6 3 C-4.02 2.67 -2.04 2.34 0 2 C0 1.34 0 0.68 0 0 Z " fill="#176BE4" transform="translate(170,438)"/>
<path d="M0 0 C1.3609623 2.7219246 0.70366248 4.1831957 0.0625 7.125 C-0.13214844 8.03507812 -0.32679688 8.94515625 -0.52734375 9.8828125 C-0.68332031 10.58148438 -0.83929688 11.28015625 -1 12 C-2.92164349 8.76392379 -3.05285247 8.2398689 -2.1875 4.3125 C-1 1 -1 1 0 0 Z " fill="#754BF9" transform="translate(451,293)"/>
<path d="M0 0 C2.475 0.495 2.475 0.495 5 1 C5.33 2.98 5.66 4.96 6 7 C1.125 2.25 1.125 2.25 0 0 Z " fill="#02B8E0" transform="translate(187,257)"/>
</svg>
